<?xml version="1.0" encoding="UTF-8"?>
<svg id="Capa_2" data-name="Capa 2" xmlns="http://www.w3.org/2000/svg" viewBox="0 0 656.15 869.78">
  <defs>
    <style>
      .cls-1 {
        fill: #fff;
      }

      .cls-2 {
        fill: none;
      }

      .cls-3 {
        fill: #404040;
      }

      .cls-4 {
        opacity: .08;
      }
    </style>
  </defs>
  <g id="Capa_2-2" data-name="Capa 2">
    <g>
      <rect class="cls-1" x="16.71" y=".3" width="623.19" height="869.48"/>
      <g class="cls-4">
        <path class="cls-3" d="M656.15,869.08V278.7c-62.07,12.32-119.17,48.77-156.08,100.22-32.56,45.39-49.02,99.99-72.02,150.9-23,50.91-56.01,101.47-107.28,123.66-40.49,17.53-86.39,14.86-130.51,14.47-44.12-.39-91.29,2.85-126.58,29.34-36.72,27.57-52.72,74.4-63.68,119v52.78h656.15Z"/>
      </g>
      <g class="cls-4">
        <path class="cls-3" d="M656.15,869.08v-233.14c-62.07,4.87-119.17,19.26-156.08,39.58-32.56,17.92-49.02,39.49-72.02,59.59-23,20.1-56.01,40.07-107.28,48.83-40.49,6.92-86.39,5.87-130.51,5.72-44.12-.15-91.29,1.13-126.58,11.59-36.72,10.89-52.72,29.38-63.68,46.99v20.84h656.15Z"/>
      </g>
      <g class="cls-4">
        <path class="cls-3" d="M15.71,0v394.08c41.43-8.23,79.55-32.55,104.19-66.9,21.74-30.3,32.72-66.75,48.07-100.73,15.35-33.98,37.39-67.73,71.61-82.54,27.03-11.7,57.67-9.92,87.12-9.66,29.45.26,60.94-1.9,84.49-19.59,24.51-18.41,35.19-49.67,42.51-79.43V0H15.71Z"/>
      </g>
      <rect class="cls-2" x="16.71" y=".3" width="623.19" height="869.48"/>
    </g>
  </g>
</svg>